<svg xmlns="http://www.w3.org/2000/svg" viewBox="0 0 1600 900" preserveAspectRatio="xMidYMid slice">
  <defs>
    <linearGradient id="g" x1="0" x2="1" y1="0" y2="1">
      <stop offset="0" stop-color="#06351f"/>
      <stop offset=".55" stop-color="#0f7a45"/>
      <stop offset="1" stop-color="#c89b3c"/>
    </linearGradient>
    <pattern id="p" width="120" height="120" patternUnits="userSpaceOnUse">
      <path d="M60 10 110 60 60 110 10 60z" fill="none" stroke="#ffffff" stroke-opacity=".13" stroke-width="2"/>
      <circle cx="60" cy="60" r="10" fill="#ffffff" fill-opacity=".08"/>
    </pattern>
  </defs>
  <rect width="1600" height="900" fill="url(#g)"/>
  <rect width="1600" height="900" fill="url(#p)"/>
  <path d="M0 690c190-84 335-74 520-18 200 61 360 84 550-16 194-103 349-105 530-30v274H0z" fill="#062d1c" fill-opacity=".55"/>
  <path d="M230 585h180v170H230zM257 585c10-82 126-82 136 0z" fill="#ffffff" fill-opacity=".12"/>
  <path d="M1180 520h230v235h-230zM1215 520c13-106 160-106 174 0z" fill="#ffffff" fill-opacity=".1"/>
  <path d="M0 0h1600v900H0z" fill="#000" fill-opacity=".1"/>
</svg>

