<?xml version="1.0" encoding="UTF-8"?>
<svg version="1.1" xmlns="http://www.w3.org/2000/svg" width="96" height="96">
<path d="M0 0 C0.87551514 0.00467285 1.75103027 0.0093457 2.65307617 0.01416016 C9.48489811 0.17004813 14.9144543 1.58639539 21.125 4.4375 C22.43053723 4.79713856 23.74282605 5.13380934 25.0625 5.4375 C28.57111579 6.58317046 29.77358616 7.6309738 32.125 10.4375 C32.57488281 10.92089844 33.02476563 11.40429688 33.48828125 11.90234375 C37.80422969 16.64208041 41.13472281 21.7761325 44.125 27.4375 C44.54265625 28.22382813 44.9603125 29.01015625 45.390625 29.8203125 C49.91338638 39.98060039 50.0640383 54.0500845 46.5 64.5625 C45.76275158 66.21290173 44.97086683 67.84004252 44.125 69.4375 C43.67769531 70.30632812 43.23039062 71.17515625 42.76953125 72.0703125 C39.96273686 77.11200751 36.83484735 81.10878505 32.54296875 84.96484375 C30.8671846 86.49392119 30.8671846 86.49392119 30.125 89.4375 C25.17639174 93.11178854 20.27343813 94.95526956 14.125 95.4375 C13.49102295 95.60419189 12.8570459 95.77088379 12.20385742 95.94262695 C8.34474462 96.86129068 4.38619111 96.62210719 0.4375 96.625 C-0.42294922 96.63724609 -1.28339844 96.64949219 -2.16992188 96.66210938 C-12.38741246 96.68520845 -22.63745602 94.80287489 -30.875 88.4375 C-31.5587045 87.11282254 -32.22464186 85.77886367 -32.875 84.4375 C-35.30460105 82.09072625 -37.84020904 79.95489548 -40.875 78.4375 C-41.22692391 76.77465952 -41.55654017 75.10707247 -41.875 73.4375 C-42.66194997 71.5631766 -43.49765565 69.70875172 -44.375 67.875 C-49.34986766 57.44802447 -50.06113004 43.30310323 -46.25 32.3125 C-45.51490997 30.66113579 -44.72291007 29.0338739 -43.875 27.4375 C-43.41609375 26.56867187 -42.9571875 25.69984375 -42.484375 24.8046875 C-39.48088689 19.50906373 -36.03626421 14.86941554 -31.875 10.4375 C-31.00875 9.48875 -30.1425 8.54 -29.25 7.5625 C-26.90447836 5.46387537 -25.90844198 4.82891187 -22.875 4.4375 C-20.05947309 3.80317618 -17.44105003 2.91620381 -14.7421875 1.90234375 C-9.77584448 0.23572434 -5.20993201 -0.06133472 0 0 Z " fill="#333743" transform="translate(47.875,-0.4375)"/>
<path d="M0 0 C2.43816585 -0.0809723 4.87364384 -0.14046972 7.3125 -0.1875 C8.34793945 -0.22520508 8.34793945 -0.22520508 9.40429688 -0.26367188 C14.5175964 -0.33777767 14.5175964 -0.33777767 16.98046875 1.38671875 C18 3 18 3 18 5 C18.66 5 19.32 5 20 5 C20 3.35 20 1.7 20 0 C21.65 0 23.3 0 25 0 C25.33 2.64 25.66 5.28 26 8 C26.99 8 27.98 8 29 8 C29.33 5.36 29.66 2.72 30 0 C30.99 0 31.98 0 33 0 C33.05399736 1.45792884 33.09279177 2.91642712 33.125 4.375 C33.14820313 5.18710937 33.17140625 5.99921875 33.1953125 6.8359375 C33 9 33 9 31 11 C28.34462628 11.56520003 25.70855287 11.73788198 23 12 C24.86566488 15.62793998 24.86566488 15.62793998 28 18 C28 16.35 28 14.7 28 13 C29.65 13 31.3 13 33 13 C33.495 16.96 33.495 16.96 34 21 C34.99 21 35.98 21 37 21 C37.33 18.36 37.66 15.72 38 13 C38.99 13 39.98 13 41 13 C41.05399736 14.45792884 41.09279177 15.91642712 41.125 17.375 C41.14820313 18.18710937 41.17140625 18.99921875 41.1953125 19.8359375 C41 22 41 22 39 24 C34.96084553 24.55935813 31.03789115 24.56662505 27 24 C24.25 21.5 24.25 21.5 23 19 C22.67 20.65 22.34 22.3 22 24 C21.01 24 20.02 24 19 24 C19 23.01 19 22.02 19 21 C17.35 21 15.7 21 14 21 C14 21.99 14 22.98 14 24 C13.01 24 12.02 24 11 24 C11 23.01 11 22.02 11 21 C9.35 21 7.7 21 6 21 C6 21.99 6 22.98 6 24 C4.02 24 2.04 24 0 24 C0 20.04 0 16.08 0 12 C6.6 12 13.2 12 20 12 C18.68 10.35 17.36 8.7 16 7 C15.67 8.32 15.34 9.64 15 11 C13.68 11 12.36 11 11 11 C11 10.01 11 9.02 11 8 C9.35 8 7.7 8 6 8 C6 8.99 6 9.98 6 11 C4.02 11 2.04 11 0 11 C0 7.37 0 3.74 0 0 Z " fill="#C5D5C9" transform="translate(23,36)"/>
<path d="M0 0 C2.43816585 -0.0809723 4.87364384 -0.14046972 7.3125 -0.1875 C8.34793945 -0.22520508 8.34793945 -0.22520508 9.40429688 -0.26367188 C14.5175964 -0.33777767 14.5175964 -0.33777767 16.98046875 1.38671875 C18 3 18 3 18 5 C18.66 5 19.32 5 20 5 C20 3.35 20 1.7 20 0 C21.65 0 23.3 0 25 0 C25.33 2.64 25.66 5.28 26 8 C26.99 8 27.98 8 29 8 C29.33 5.36 29.66 2.72 30 0 C30.99 0 31.98 0 33 0 C33.05399736 1.45792884 33.09279177 2.91642712 33.125 4.375 C33.14820313 5.18710937 33.17140625 5.99921875 33.1953125 6.8359375 C33 9 33 9 31 11 C25.99880319 11.68270306 21.44538123 12.07563254 17.3125 9 C16.879375 8.34 16.44625 7.68 16 7 C15.67 8.32 15.34 9.64 15 11 C13.68 11 12.36 11 11 11 C11 10.01 11 9.02 11 8 C9.35 8 7.7 8 6 8 C6 8.99 6 9.98 6 11 C4.02 11 2.04 11 0 11 C0 7.37 0 3.74 0 0 Z " fill="#D3E4D7" transform="translate(23,36)"/>
<path d="M0 0 C4.16681094 1.28792338 5.89603778 2.51985569 8.4375 6.0625 C8.75 9.875 8.75 9.875 8.4375 13.0625 C8.1075 13.0625 7.7775 13.0625 7.4375 13.0625 C6.7775 11.0825 6.1175 9.1025 5.4375 7.0625 C4.4475 7.0625 3.4575 7.0625 2.4375 7.0625 C2.4375 5.7425 2.4375 4.4225 2.4375 3.0625 C1.7775 3.0625 1.1175 3.0625 0.4375 3.0625 C0.4375 6.6925 0.4375 10.3225 0.4375 14.0625 C-0.5525 14.5575 -0.5525 14.5575 -1.5625 15.0625 C-2.2225 14.7325 -2.8825 14.4025 -3.5625 14.0625 C-3.8925 14.7225 -4.2225 15.3825 -4.5625 16.0625 C-5.2225 16.3925 -5.8825 16.7225 -6.5625 17.0625 C-6.5625 14.4225 -6.5625 11.7825 -6.5625 9.0625 C-7.5525 9.0625 -8.5425 9.0625 -9.5625 9.0625 C-9.5625 11.7025 -9.5625 14.3425 -9.5625 17.0625 C-11.5 17.625 -11.5 17.625 -13.5625 18.0625 C-14.5625 17.0625 -14.5625 17.0625 -14.66015625 15.21484375 C-14.62760417 13.1640625 -14.59505208 11.11328125 -14.5625 9.0625 C-16.2125 9.0625 -17.8625 9.0625 -19.5625 9.0625 C-19.5625 7.7425 -19.5625 6.4225 -19.5625 5.0625 C-18.58410156 5.02382813 -18.58410156 5.02382813 -17.5859375 4.984375 C-11.64073547 4.60125011 -11.64073547 4.60125011 -6.375 1.9375 C-3.5625 0.0625 -3.5625 0.0625 0 0 Z " fill="#36474F" transform="translate(62.5625,26.9375)"/>
<path d="M0 0 C1.65 0 3.3 0 5 0 C5 0.99 5 1.98 5 3 C5.99 3 6.98 3 8 3 C8 2.01 8 1.02 8 0 C9.65 0 11.3 0 13 0 C13 0.99 13 1.98 13 3 C15.97 3.33 18.94 3.66 22 4 C22 4.99 22 5.98 22 7 C12.43 7 2.86 7 -7 7 C-6.67 6.01 -6.34 5.02 -6 4 C-4.02 4 -2.04 4 0 4 C0 2.68 0 1.36 0 0 Z " fill="#666A72" transform="translate(29,57)"/>
<path d="M0 0 C1.65 0 3.3 0 5 0 C5.33 2.64 5.66 5.28 6 8 C6.99 8 7.98 8 9 8 C9.33 5.36 9.66 2.72 10 0 C10.99 0 11.98 0 13 0 C13.05399736 1.45792884 13.09279177 2.91642712 13.125 4.375 C13.14820312 5.18710937 13.17140625 5.99921875 13.1953125 6.8359375 C13 9 13 9 11 11 C5.99880319 11.68270306 1.44538123 12.07563254 -2.6875 9 C-3.120625 8.34 -3.55375 7.68 -4 7 C-3.67 6.01 -3.34 5.02 -3 4 C-2.01 4.33 -1.02 4.66 0 5 C0 3.35 0 1.7 0 0 Z " fill="#DBECDE" transform="translate(43,36)"/>
<path d="M0 0 C4.95 0 9.9 0 15 0 C15.33 0.99 15.66 1.98 16 3 C16 2.01 16 1.02 16 0 C17.98 0 19.96 0 22 0 C22 0.99 22 1.98 22 3 C17.84373632 4.00926479 13.95634906 4.10239579 9.6875 4.0625 C8.43324219 4.05347656 7.17898437 4.04445313 5.88671875 4.03515625 C4.93410156 4.02355469 3.98148438 4.01195312 3 4 C3 7.63 3 11.26 3 15 C2.67 15 2.34 15 2 15 C1.93941406 14.16855469 1.87882812 13.33710937 1.81640625 12.48046875 C1.73261719 11.39378906 1.64882813 10.30710937 1.5625 9.1875 C1.48128906 8.10855469 1.40007813 7.02960937 1.31640625 5.91796875 C1.09787539 2.94010095 1.09787539 2.94010095 0 0 Z " fill="#6E7582" transform="translate(20,32)"/>
<path d="M0 0 C1.32 0 2.64 0 4 0 C6 2 6 2 6 6 C7.32 5.67 8.64 5.34 10 5 C10 3.68 10 2.36 10 1 C8.35 1 6.7 1 5 1 C5 0.67 5 0.34 5 0 C7.64 0 10.28 0 13 0 C13.38133299 1.9914056 13.71325582 3.99279077 14 6 C13 7 13 7 9.4375 7.0625 C8.303125 7.041875 7.16875 7.02125 6 7 C6 8.32 6 9.64 6 11 C4.02 11 2.04 11 0 11 C0 7.37 0 3.74 0 0 Z " fill="#D2E2D5" transform="translate(23,49)"/>
<path d="M0 0 C3.3 0 6.6 0 10 0 C10 0.99 10 1.98 10 3 C10.99 3.33 11.98 3.66 13 4 C12.01 4 11.02 4 10 4 C10 6.64 10 9.28 10 12 C8.0625 12.5625 8.0625 12.5625 6 13 C5 12 5 12 4.90234375 10.15234375 C4.93489583 8.1015625 4.96744792 6.05078125 5 4 C3.35 4 1.7 4 0 4 C0 2.68 0 1.36 0 0 Z " fill="#737B86" transform="translate(43,32)"/>
<path d="M0 0 C-1.81115956 1.81115956 -4.61278227 1.38199448 -7.0625 1.5625 C-8.16722656 1.64628906 -9.27195312 1.73007812 -10.41015625 1.81640625 C-11.69212891 1.90728516 -11.69212891 1.90728516 -13 2 C-12.67 3.32 -12.34 4.64 -12 6 C-13.175625 6.12375 -13.175625 6.12375 -14.375 6.25 C-15.674375 6.62125 -15.674375 6.62125 -17 7 C-17.66 8.32 -18.32 9.64 -19 11 C-19 7.7 -19 4.4 -19 1 C-20.32 0.67 -21.64 0.34 -23 0 C-19.72966072 -0.19689005 -16.45872059 -0.38089008 -13.1875 -0.5625 C-12.25873047 -0.61857422 -11.32996094 -0.67464844 -10.37304688 -0.73242188 C-9.48037109 -0.78076172 -8.58769531 -0.82910156 -7.66796875 -0.87890625 C-6.84578857 -0.9260376 -6.0236084 -0.97316895 -5.17651367 -1.02172852 C-3 -1 -3 -1 0 0 Z " fill="#828E90" transform="translate(46,48)"/>
<path d="M0 0 C1.98 0 3.96 0 6 0 C6.33 0.66 6.66 1.32 7 2 C6.67 2.99 6.34 3.98 6 5 C7.32 4.67 8.64 4.34 10 4 C9.47060248 7.81166211 8.57283706 10.11842249 6 13 C5.01 13.495 5.01 13.495 4 14 C3.80533668 12.20909747 3.61948787 10.41723495 3.4375 8.625 C3.33308594 7.62726562 3.22867188 6.62953125 3.12109375 5.6015625 C3 3 3 3 4 1 C3.01 1.33 2.02 1.66 1 2 C0.67 1.34 0.34 0.68 0 0 Z " fill="#273D42" transform="translate(59,29)"/>
<path d="M0 0 C1.65 0.33 3.3 0.66 5 1 C4.67 1.99 4.34 2.98 4 4 C5.32 4 6.64 4 8 4 C8 5.65 8 7.3 8 9 C7.01 9 6.02 9 5 9 C5 8.01 5 7.02 5 6 C3.35 6 1.7 6 0 6 C0 6.99 0 7.98 0 9 C-0.99 9 -1.98 9 -3 9 C-3 8.01 -3 7.02 -3 6 C-4.65 6 -6.3 6 -8 6 C-8 5.67 -8 5.34 -8 5 C-4.535 4.505 -4.535 4.505 -1 4 C-0.67 2.68 -0.34 1.36 0 0 Z " fill="#A4B1AD" transform="translate(37,51)"/>
<path d="M0 0 C0.33 0 0.66 0 1 0 C1 1.65 1 3.3 1 5 C1.66 5.33 2.32 5.66 3 6 C2.34 6 1.68 6 1 6 C0.7525 6.78375 0.505 7.5675 0.25 8.375 C-1.33931493 12.98401329 -3.16207173 17.48547716 -5 22 C-5.33 22 -5.66 22 -6 22 C-6.16276042 19.98177083 -6.32552083 17.96354167 -6.48828125 15.9453125 C-6.87393036 13.60480784 -6.87393036 13.60480784 -10 12 C-8.88625 11.566875 -7.7725 11.13375 -6.625 10.6875 C-2.82487666 9.30088881 -2.82487666 9.30088881 -1 6 C-0.60986284 4.0103005 -0.26797351 2.00980131 0 0 Z " fill="#20242C" transform="translate(71,35)"/>
<path d="M0 0 C1.7074998 1.28062485 3.37373596 2.61767557 5 4 C5 4.66 5 5.32 5 6 C-1.6 6 -8.2 6 -15 6 C-15 5.67 -15 5.34 -15 5 C-13.02 5 -11.04 5 -9 5 C-9 4.01 -9 3.02 -9 2 C-7.35 2 -5.7 2 -4 2 C-4 2.99 -4 3.98 -4 5 C-2.68 5 -1.36 5 0 5 C0 3.35 0 1.7 0 0 Z " fill="#40495A" transform="translate(38,42)"/>
<path d="M0 0 C2.9375 2.125 2.9375 2.125 5 5 C5.3125 8.8125 5.3125 8.8125 5 12 C4.67 12 4.34 12 4 12 C3.34 10.02 2.68 8.04 2 6 C1.01 6 0.02 6 -1 6 C-1 4.68 -1 3.36 -1 2 C-5.24480464 1.66707415 -7.35542625 1.56114128 -10.9375 4 C-11.618125 4.66 -12.29875 5.32 -13 6 C-12.69542509 3.05577584 -12.16507321 2.14079774 -9.875 0.1875 C-6.04434742 -1.39472607 -3.9692017 -1.13405763 0 0 Z " fill="#525649" transform="translate(66,28)"/>
<path d="M0 0 C0.99 0 1.98 0 3 0 C3 3.63 3 7.26 3 11 C-0.83736322 10.04065919 -1.59660228 9.76390737 -4 7 C-3.67 6.01 -3.34 5.02 -3 4 C-2.01 4.33 -1.02 4.66 0 5 C0 3.35 0 1.7 0 0 Z " fill="#DEEFE1" transform="translate(43,36)"/>
<path d="M0 0 C0.99 0 1.98 0 3 0 C3.05399736 1.45792884 3.09279177 2.91642712 3.125 4.375 C3.14820312 5.18710937 3.17140625 5.99921875 3.1953125 6.8359375 C3 9 3 9 1 11 C-2.625 11.125 -2.625 11.125 -6 11 C-5.67 9.68 -5.34 8.36 -5 7 C-3.02 7.495 -3.02 7.495 -1 8 C-0.67 5.36 -0.34 2.72 0 0 Z " fill="#D7E7D8" transform="translate(61,49)"/>
<path d="M0 0 C1.7074998 1.28062485 3.37373596 2.61767557 5 4 C5 4.66 5 5.32 5 6 C6.15628906 5.96519531 6.15628906 5.96519531 7.3359375 5.9296875 C8.33882812 5.91164063 9.34171875 5.89359375 10.375 5.875 C11.37273438 5.85179687 12.37046875 5.82859375 13.3984375 5.8046875 C16 6 16 6 18 8 C5.33029613 8.18451025 5.33029613 8.18451025 0 7 C0 4.69 0 2.38 0 0 Z " fill="#454B51" transform="translate(45,54)"/>
<path d="M0 0 C1.77074917 -0.02705729 3.54161711 -0.04642195 5.3125 -0.0625 C6.29863281 -0.07410156 7.28476562 -0.08570313 8.30078125 -0.09765625 C11 0 11 0 14 1 C14 1.66 14 2.32 14 3 C9.05 3 4.1 3 -1 3 C-0.67 2.01 -0.34 1.02 0 0 Z " fill="#8E929A" transform="translate(23,61)"/>
<path d="M0 0 C2.64 0 5.28 0 8 0 C8.38133299 1.9914056 8.71325582 3.99279077 9 6 C8 7 8 7 4.4375 7.0625 C3.303125 7.041875 2.16875 7.02125 1 7 C0.67 8.32 0.34 9.64 0 11 C0 8.03 0 5.06 0 2 C0.33 3.32 0.66 4.64 1 6 C2.32 5.67 3.64 5.34 5 5 C5 3.68 5 2.36 5 1 C3.35 1 1.7 1 0 1 C0 0.67 0 0.34 0 0 Z " fill="#E0F1E3" transform="translate(28,49)"/>
<path d="M0 0 C1.32 0 2.64 0 4 0 C4 3.3 4 6.6 4 10 C2.68 9.67 1.36 9.34 0 9 C0 6.03 0 3.06 0 0 Z " fill="#30384D" transform="translate(48,35)"/>
<path d="M0 0 C0.99 0 1.98 0 3 0 C3 3.63 3 7.26 3 11 C2.01 11 1.02 11 0 11 C0 7.37 0 3.74 0 0 Z " fill="#DAEBDE" transform="translate(23,36)"/>
<path d="M0 0 C0.99 0 1.98 0 3 0 C5.4294516 3.6441774 5.16179575 5.71241272 5 10 C4.67 10 4.34 10 4 10 C3.34 8.02 2.68 6.04 2 4 C1.01 4 0.02 4 -1 4 C-0.67 2.68 -0.34 1.36 0 0 Z " fill="#444A43" transform="translate(66,30)"/>
<path d="M0 0 C1.98 0.495 1.98 0.495 4 1 C4.33 2.98 4.66 4.96 5 7 C4.34 7 3.68 7 3 7 C3 6.34 3 5.68 3 5 C1.68 5 0.36 5 -1 5 C-0.67 3.35 -0.34 1.7 0 0 Z " fill="#2D3536" transform="translate(69,47)"/>
<path d="M0 0 C0.33 0 0.66 0 1 0 C1 2.64 1 5.28 1 8 C0.01 8 -0.98 8 -2 8 C-2.66 6.68 -3.32 5.36 -4 4 C-3.34 3.67 -2.68 3.34 -2 3 C-1.34 3.33 -0.68 3.66 0 4 C0 2.68 0 1.36 0 0 Z " fill="#D4E5D7" transform="translate(43,37)"/>
<path d="M0 0 C0.66 0 1.32 0 2 0 C2.19491452 1.45736087 2.38069358 2.91594593 2.5625 4.375 C2.66691406 5.18710937 2.77132812 5.99921875 2.87890625 6.8359375 C3 9 3 9 2 11 C1.34 11 0.68 11 0 11 C0 7.37 0 3.74 0 0 Z " fill="#B8C8BD" transform="translate(46,36)"/>
<path d="M0 0 C0.99 0 1.98 0 3 0 C3 2.31 3 4.62 3 7 C2.01 7.495 2.01 7.495 1 8 C-0.35439668 5.29120665 -0.06501451 2.99066732 0 0 Z " fill="#DDEFE0" transform="translate(51,49)"/>
<path d="M0 0 C1.32 1.32 2.64 2.64 4 4 C3.34 4.66 2.68 5.32 2 6 C1.35232207 8.57061311 1.35232207 8.57061311 1 11 C0.67 11 0.34 11 0 11 C-0.19406478 9.35492782 -0.38007935 7.70890406 -0.5625 6.0625 C-0.66691406 5.14597656 -0.77132812 4.22945312 -0.87890625 3.28515625 C-0.91886719 2.53105469 -0.95882812 1.77695312 -1 1 C-0.67 0.67 -0.34 0.34 0 0 Z " fill="#B1C0B8" transform="translate(37,36)"/>
<path d="M0 0 C1.65 0 3.3 0 5 0 C5 1.32 5 2.64 5 4 C3.35 4 1.7 4 0 4 C0 2.68 0 1.36 0 0 Z " fill="#484E5C" transform="translate(29,57)"/>
<path d="M0 0 C0.66 0.33 1.32 0.66 2 1 C1.67 2.65 1.34 4.3 1 6 C-0.98 6 -2.96 6 -5 6 C-4.01 5.34 -3.02 4.68 -2 4 C-0.80767387 1.94996045 -0.80767387 1.94996045 0 0 Z " fill="#E1F2E3" transform="translate(43,50)"/>
<path d="M0 0 C1.7074998 1.28062485 3.37373596 2.61767557 5 4 C5 4.66 5 5.32 5 6 C3.35 6 1.7 6 0 6 C0 4.02 0 2.04 0 0 Z " fill="#2F384D" transform="translate(38,42)"/>
<path d="M0 0 C2.97 0 5.94 0 9 0 C8.67 0.66 8.34 1.32 8 2 C4.71023192 3.09658936 3.28696233 2.79953138 0 2 C0 1.34 0 0.68 0 0 Z " fill="#D5E5D8" transform="translate(36,49)"/>
<path d="M0 0 C2.0625 0.4375 2.0625 0.4375 4 1 C4 2.65 4 4.3 4 6 C3.34 6 2.68 6 2 6 C0.375 3.5 0.375 3.5 -1 1 C-0.67 0.67 -0.34 0.34 0 0 Z " fill="#2A3043" transform="translate(46,47)"/>
<path d="M0 0 C2.475 0.495 2.475 0.495 5 1 C4.67 1.99 4.34 2.98 4 4 C2.68 4 1.36 4 0 4 C0 2.68 0 1.36 0 0 Z " fill="#54606C" transform="translate(29,38)"/>
<path d="M0 0 C3 1 3 1 3 1 Z " fill="#000000" transform="translate(62,95)"/>
<path d="M0 0 C3 1 3 1 3 1 Z " fill="#1C1C1C" transform="translate(31,95)"/>
<path d="" fill="#000000" transform="translate(0,0)"/>
<path d="" fill="#383838" transform="translate(0,0)"/>
<path d="" fill="#000000" transform="translate(0,0)"/>
<path d="" fill="#383838" transform="translate(0,0)"/>
<path d="M0 0 C3 1 3 1 3 1 Z " fill="#003838" transform="translate(62,0)"/>
<path d="M0 0 C3 1 3 1 3 1 Z " fill="#383838" transform="translate(31,0)"/>
<path d="M0 0 C2 1 2 1 2 1 Z " fill="#000000" transform="translate(65,94)"/>
<path d="M0 0 C2 1 2 1 2 1 Z " fill="#AAAAAA" transform="translate(29,94)"/>
<path d="" fill="#000000" transform="translate(0,0)"/>
<path d="" fill="#000000" transform="translate(0,0)"/>
<path d="" fill="#2A2A2A" transform="translate(0,0)"/>
<path d="" fill="#000000" transform="translate(0,0)"/>
<path d="" fill="#000000" transform="translate(0,0)"/>
<path d="" fill="#2A2A2A" transform="translate(0,0)"/>
<path d="" fill="#000000" transform="translate(0,0)"/>
<path d="" fill="#000000" transform="translate(0,0)"/>
<path d="" fill="#7F7F7F" transform="translate(0,0)"/>
<path d="" fill="#000000" transform="translate(0,0)"/>
<path d="" fill="#7F7F7F" transform="translate(0,0)"/>
<path d="" fill="#000000" transform="translate(0,0)"/>
<path d="" fill="#2A2A2A" transform="translate(0,0)"/>
<path d="" fill="#000000" transform="translate(0,0)"/>
<path d="" fill="#3F3FBF" transform="translate(0,0)"/>
<path d="" fill="#000000" transform="translate(0,0)"/>
<path d="" fill="#3FBFBF" transform="translate(0,0)"/>
<path d="" fill="#000000" transform="translate(0,0)"/>
<path d="" fill="#2A2A2A" transform="translate(0,0)"/>
<path d="" fill="#000000" transform="translate(0,0)"/>
<path d="" fill="#2A2A2A" transform="translate(0,0)"/>
<path d="M0 0 C2 1 2 1 2 1 Z " fill="#000000" transform="translate(71,4)"/>
<path d="M0 0 C2 1 2 1 2 1 Z " fill="#007F7F" transform="translate(23,4)"/>
<path d="M0 0 C2 1 2 1 2 1 Z " fill="#000000" transform="translate(69,3)"/>
<path d="M0 0 C2 1 2 1 2 1 Z " fill="#00006A" transform="translate(67,2)"/>
<path d="M0 0 C2 1 2 1 2 1 Z " fill="#6A6A6A" transform="translate(27,2)"/>
<path d="M0 0 C2 1 2 1 2 1 Z " fill="#00007F" transform="translate(65,1)"/>
<path d="M0 0 C2 1 2 1 2 1 Z " fill="#007F7F" transform="translate(29,1)"/>
<path d="" fill="#000000" transform="translate(0,0)"/>
<path d="" fill="#7F7F7F" transform="translate(0,0)"/>
<path d="" fill="#000000" transform="translate(0,0)"/>
<path d="" fill="#555555" transform="translate(0,0)"/>
<path d="" fill="#000000" transform="translate(0,0)"/>
<path d="" fill="#AAAAAA" transform="translate(0,0)"/>
<path d="" fill="#000000" transform="translate(0,0)"/>
<path d="" fill="#AAAAAA" transform="translate(0,0)"/>
<path d="" fill="#000000" transform="translate(0,0)"/>
<path d="" fill="#555555" transform="translate(0,0)"/>
<path d="" fill="#000000" transform="translate(0,0)"/>
<path d="" fill="#555555" transform="translate(0,0)"/>
<path d="" fill="#000000" transform="translate(0,0)"/>
<path d="" fill="#555555" transform="translate(0,0)"/>
<path d="" fill="#000000" transform="translate(0,0)"/>
<path d="" fill="#555555" transform="translate(0,0)"/>
<path d="" fill="#000000" transform="translate(0,0)"/>
<path d="" fill="#000000" transform="translate(0,0)"/>
<path d="" fill="#7F7F7F" transform="translate(0,0)"/>
<path d="" fill="#7F7F7F" transform="translate(0,0)"/>
<path d="" fill="#555555" transform="translate(0,0)"/>
<path d="" fill="#000000" transform="translate(0,0)"/>
<path d="" fill="#7F7F7F" transform="translate(0,0)"/>
<path d="" fill="#000000" transform="translate(0,0)"/>
<path d="" fill="#555555" transform="translate(0,0)"/>
<path d="" fill="#000000" transform="translate(0,0)"/>
<path d="" fill="#7F7F7F" transform="translate(0,0)"/>
<path d="" fill="#000000" transform="translate(0,0)"/>
<path d="" fill="#555555" transform="translate(0,0)"/>
<path d="" fill="#000000" transform="translate(0,0)"/>
<path d="" fill="#555555" transform="translate(0,0)"/>
<path d="" fill="#000000" transform="translate(0,0)"/>
<path d="" fill="#555555" transform="translate(0,0)"/>
<path d="" fill="#000000" transform="translate(0,0)"/>
<path d="" fill="#555555" transform="translate(0,0)"/>
<path d="" fill="#000000" transform="translate(0,0)"/>
<path d="" fill="#555555" transform="translate(0,0)"/>
<path d="" fill="#000000" transform="translate(0,0)"/>
<path d="" fill="#555555" transform="translate(0,0)"/>
</svg>
